#!OML:ASF F:\VICON\USERDATA\INSTALL\rory3\rory3.ASF
:FULLY-SPECIFIED
:DEGREES
825
root -0.879055 15.5288 1.3463 -155.029 4.76205 190.096
lowerback 2.04991 4.21623 6.75727
upperback -3.02763 6.2428 2.22502
thorax -3.83751 3.04544 -1.77068
lowerneck -17.2747 0.880011 0.900102
upperneck 34.5366 -2.16623 0.913691
head 14.8967 -1.54917 -0.392689
rclavicle 5.89397e-014 2.54444e-014
rhumerus -260.232 -135.902 259.689
rradius 14.3092
rwrist 124.136
rhand 19.8261 -3.01234
rfingers 7.12502
rthumb 44.3731 -26.7547
lclavicle 5.89397e-014 2.54444e-014
lhumerus -51.3738 -0.0723427 -3.75265
lradius 13.2846
lwrist -73.3887
lhand 18.866 29.6668
lfingers 7.12502
lthumb 43.4773 53.7419
rfemur -10.4158 5.08781 37.9892
rtibia 30.8942
rfoot -22.5278 3.71696
rtoes -3.65812
lfemur -73.6239 5.68327 -30.3498
ltibia 44.2039
lfoot -9.10015 29.1732
ltoes 23.8363
826
root -0.870231 15.5178 1.23903 -155.081 5.18358 189.922
lowerback 2.52643 4.20372 6.36
upperback -2.73729 6.19554 2.12736
thorax -3.83184 3.0221 -1.68
lowerneck -17.4257 0.95885 1.08059
upperneck 34.3657 -2.04511 0.892081
head 14.8501 -1.45906 -0.406992
rclavicle -6.48038e-014 3.97569e-015
rhumerus -257.943 -134.447 257.333
rradius 14.223
rwrist 123.638
rhand 20.3767 -2.52469
rfingers 7.12502
rthumb 44.8858 -26.0691
lclavicle -6.48038e-014 3.97569e-015
lhumerus -49.6777 -1.8985 -2.74591
lradius 13.4285
lwrist -73.1302
lhand 19.4857 30.1381
lfingers 7.12502
lthumb 44.0557 54.0002
rfemur -11.2835 3.73877 37.4541
rtibia 33.3035
rfoot -21.5327 5.79255
rtoes -1.57294
lfemur -73.2924 5.94735 -30.5067
ltibia 44.7378
lfoot -10.2759 28.5382
ltoes 24.0398
827
root -0.859635 15.5078 1.14147 -155.181 5.36619 189.872
lowerback 2.90931 4.14776 6.20483
upperback -2.27121 6.084 2.04641
thorax -3.57316 2.97187 -1.68308
lowerneck -17.5372 1.02609 1.34573
upperneck 34.0395 -1.91864 0.832854
head 14.722 -1.35232 -0.445931
rclavicle -2.3556e-014 -9.93923e-016
rhumerus -256.099 -132.937 255.233
rradius 14.1849
rwrist 122.879
rhand 20.8014 -2.32852
rfingers 7.12502
rthumb 45.2809 -25.7166
lclavicle -2.3556e-014 -9.93923e-016
lhumerus -47.8435 -3.41653 -1.97531
lradius 13.2788
lwrist -72.7429
lhand 21.1634 29.9648
lfingers 7.12502
lthumb 45.6173 53.217
rfemur -12.5281 2.10907 37.1559
rtibia 35.959
rfoot -19.7258 7.50692
rtoes 0.604674
lfemur -73.004 6.21346 -30.5195
ltibia 45.3122
lfoot -11.3568 27.6821
ltoes 23.961
828
root -0.841475 15.4959 1.06952 -155.01 5.37199 189.689
lowerback 3.28495 4.01682 5.87109
upperback -2.02509 5.88399 1.95947
thorax -3.56314 2.87392 -1.60112
lowerneck -17.1881 1.08233 1.44203
upperneck 33.6588 -1.87426 1.00377
head 14.4704 -1.29062 -0.37498
rclavicle -1.19271e-015 -1.63003e-014
rhumerus -252.493 -131.956 251.059
rradius 14.0162
rwrist 120.777
rhand 21.3038 -2.5955
rfingers 7.12502
rthumb 45.7477 -25.7944
lclavicle -1.19271e-015 -1.63003e-014
lhumerus -46.0848 -5.50737 -1.07113
lradius 13.1877
lwrist -72.2182
lhand 23.5815 28.8875
lfingers 7.12502
lthumb 47.8558 51.1674
rfemur -14.5253 0.507375 36.9057
rtibia 38.9459
rfoot -17.033 8.76635
rtoes 3.5801
lfemur -73.0927 6.17583 -30.5342
ltibia 45.8108
lfoot -12.4237 26.859
ltoes 24.7144
829
root -0.834179 15.487 0.96273 -155.346 5.85876 190.056
lowerback 4.05619 4.07467 5.99451
upperback -1.539 5.99125 1.96807
thorax -3.47288 2.92883 -1.70591
lowerneck -17.214 1.13551 1.55521
upperneck 33.4598 -1.83427 1.1304
head 14.3878 -1.22833 -0.331079
rclavicle -3.45885e-014 -4.17448e-015
rhumerus -249.616 -130.771 247.868
rradius 14.1141
rwrist 119.595
rhand 21.8361 -2.45845
rfingers 7.12502
rthumb 46.2415 -25.4517
lclavicle -3.45885e-014 -4.17448e-015
lhumerus -44.4438 -8.77273 0.756262
lradius 13.2015
lwrist -70.0411
lhand 27.26 27.5603
lfingers 7.12502
lthumb 51.2276 48.1138
rfemur -15.6882 -1.05581 36.8833
rtibia 42.0814
rfoot -14.1463 10.0448
rtoes 6.43704
lfemur -72.6152 6.65295 -29.9109
ltibia 46.3418
lfoot -13.8259 26.4623
ltoes 25.5798
830
root -0.823785 15.4729 0.876744 -155.722 6.36903 189.92
lowerback 4.93822 4.243 5.74482
upperback -1.24531 6.21798 1.70414
thorax -3.6421 3.03156 -1.91426
lowerneck -16.6202 1.03925 1.80217
upperneck 33.324 -2.16573 1.31879
head 14.1967 -1.33253 -0.351367
rclavicle -3.21037e-014 4.17448e-015
rhumerus -248.294 -129.527 246.776
rradius 14.394
rwrist 120.083
rhand 22.1693 -2.22799
rfingers 7.12502
rthumb 46.5503 -25.0898
lclavicle -3.21037e-014 4.17448e-015
lhumerus -42.3679 -12.8881 2.56578
lradius 13.4199
lwrist -67.4694
lhand 24.0654 29.6706
lfingers 7.12502
lthumb 48.3017 51.7414
rfemur -17.1111 -2.76664 36.4274
rtibia 45.3435
rfoot -11.3269 10.692
rtoes 5.80701
lfemur -72.1904 7.11103 -30.0735
ltibia 46.8488
lfoot -14.4836 26.3298
ltoes 24.9585
831
root -0.814518 15.46 0.811628 -156.492 7.47095 189.229
lowerback 6.35145 4.42638 4.6743
upperback -0.659407 6.40979 1.36491
thorax -3.88444 3.13273 -1.78851
lowerneck -16.6491 1.08359 2.09093
upperneck 33.3374 -2.16388 1.20977
head 14.2067 -1.30622 -0.445068
rclavicle -1.53064e-014 -5.76476e-015
rhumerus -245.409 -128.359 243.777
rradius 14.371
rwrist 119.331
rhand 22.4972 -2.38137
rfingers 7.12502
rthumb 46.8539 -25.1117
lclavicle -1.53064e-014 -5.76476e-015
lhumerus -40.205 -13.88 2.1223
lradius 13.6602
lwrist -69.0346
lhand 21.0333 30.5846
lfingers 7.12502
lthumb 45.4965 53.8858
rfemur -18.4839 -4.29195 35.2472
rtibia 48.7646
rfoot -8.61418 10.582
rtoes 0.0928936
lfemur -71.3263 7.64224 -30.7944
ltibia 47.3131
lfoot -15.2921 26.5756
ltoes 23.6056
832
root -0.827178 15.4404 0.719347 -155.865 6.20979 189.694
lowerback 5.70852 3.97958 5.99642
upperback -0.186381 5.87699 1.51832
thorax -2.9521 2.89268 -2.23246
lowerneck -17.0705 1.17101 2.35481
upperneck 33.2788 -1.92967 0.840597
head 14.268 -1.19463 -0.597696
rclavicle -2.60408e-014 -4.96962e-015
rhumerus -241.627 -127.465 239.742
rradius 14.2516
rwrist 117.909
rhand 22.9392 -2.39077
rfingers 7.12502
rthumb 47.2626 -24.9404
lclavicle -2.60408e-014 -4.96962e-015
lhumerus -38.3873 -15.715 2.55553
lradius 13.8203
lwrist -69.0952
lhand 20.0632 30.72
lfingers 7.12502
lthumb 44.594 54.3777
rfemur -21.1637 -7.79266 36.0177
rtibia 52.256
rfoot -6.01093 11.1185
rtoes -4.95926
lfemur -72.0601 7.38117 -30.9378
ltibia 47.844
lfoot -14.8598 25.8653
ltoes 21.9949
833
root -0.838002 15.4243 0.632021 -155.798 5.89278 189.789
lowerback 5.87618 3.81422 6.54924
upperback 0.350852 5.70028 1.53576
thorax -2.45189 2.83243 -2.49287
lowerneck -17.2601 1.11967 2.13076
upperneck 33.1372 -1.92041 0.95245
head 14.2486 -1.18424 -0.507037
rclavicle -8.06072e-014 9.14409e-015
rhumerus -238.556 -126.406 236.885
rradius 14.1063
rwrist 117.435
rhand 22.9865 -2.32965
rfingers 7.12502
rthumb 47.3064 -24.8597
lclavicle -8.06072e-014 9.14409e-015
lhumerus -36.6187 -18.6356 3.50152
lradius 13.9747
lwrist -67.5417
lhand 20.1632 30.8854
lfingers 7.12502
lthumb 44.687 54.5072
rfemur -23.4033 -10.317 36.1053
rtibia 55.9987
rfoot -3.25871 10.7144
rtoes -8.89986
lfemur -72.1612 7.33945 -31.1362
ltibia 48.3697
lfoot -15.5763 25.7652
ltoes 22.4295
834
root -0.845176 15.4028 0.561585 -155.889 5.82492 189.617
lowerback 6.41081 3.65912 6.66308
upperback 0.810718 5.53995 1.52021
thorax -2.27541 2.7739 -2.58265
lowerneck -16.9995 1.1427 1.97982
upperneck 32.8388 -1.73874 0.852597
head 14.0556 -1.13 -0.481738
rclavicle 3.53837e-014 6.55989e-015
rhumerus -236.031 -124.706 235.008
rradius 13.9208
rwrist 118.026
rhand 22.7145 -2.19202
rfingers 7.12502
rthumb 47.055 -24.834
lclavicle 3.53837e-014 6.55989e-015
lhumerus -35.0411 -22.2631 4.58237
lradius 14.0617
lwrist -65.591
lhand 20.3128 30.9186
lfingers 7.12502
lthumb 44.8264 54.4862
rfemur -25.7328 -12.3021 36.0155
rtibia 59.8195
rfoot -0.738549 9.00972
rtoes -16.0645
lfemur -72.1391 7.28109 -31.4801
ltibia 48.8599
lfoot -16.3365 25.6446
ltoes 23.2569
835
root -0.848166 15.3528 0.506111 -156.055 5.9321 189.385
lowerback 7.08757 3.53309 6.58134
upperback 1.33068 5.42254 1.51552
thorax -2.13095 2.74216 -2.56438
lowerneck -16.8137 1.25301 1.88142
upperneck 32.5842 -1.36487 0.530627
head 13.8982 -1.01262 -0.523363
rclavicle 2.05742e-014 1.43125e-014
rhumerus -233.552 -122.581 233.397
rradius 13.5417
rwrist 118.926
rhand 22.4748 -2.13174
rfingers 7.12502
rthumb 46.8332 -24.8711
lclavicle 2.05742e-014 1.43125e-014
lhumerus -33.7583 -26.7376 6.03527
lradius 14.2288
lwrist -62.6288
lhand 20.4328 31.1612
lfingers 7.12502
lthumb 44.9381 54.6851
rfemur -28.3192 -13.9281 35.9463
rtibia 63.8498
rfoot 2.47563 6.61356
rtoes -20.4956
lfemur -72.2032 7.12752 -31.7168
ltibia 49.312
lfoot -16.5425 25.9473
ltoes 22.5042
